<?xml version="1.0" encoding="iso-8859-1"?>
<!-- Generator: Adobe Illustrator 19.0.0, SVG Export Plug-In . SVG Version: 6.00 Build 0)  -->
<svg version="1.1" id="Capa_1" xmlns="http://www.w3.org/2000/svg" xmlns:xlink="http://www.w3.org/1999/xlink" x="0px" y="0px"
	 viewBox="0 0 436.907 436.907" style="enable-background:new 0 0 436.907 436.907;" xml:space="preserve">
<circle style="fill:#EFC84A;" cx="218.453" cy="218.453" r="218.453"/>
<g style="opacity:0.1;">
	<path d="M436.315,233.741L308.512,105.939c-57.207-2.663-83.881,30.253-89.022,37.469v-0.003l-0.031,0.047
		c-0.609,0.856-0.925,1.361-0.925,1.361v0.032l-0.081,0.122c0,0-61.436-26.279-120.179,0h-4.191c-2.005,0-3.63,1.611-3.63,3.598
		v178.957c0,0.925,0.377,1.749,0.956,2.387l-0.022,0.01l0.09,0.09c0.032,0.033,0.062,0.064,0.095,0.095l105.768,105.768
		c6.95,0.667,13.988,1.035,21.113,1.035C333.956,436.907,428.459,347.249,436.315,233.741z"/>
</g>
<path style="fill:#E56353;" d="M342.823,144.966H94.084c-2.005,0-3.63,1.611-3.63,3.598v178.957c0,1.987,1.625,3.599,3.63,3.599
	h248.74c2.005,0,3.63-1.611,3.63-3.599V148.565C346.453,146.577,344.828,144.966,342.823,144.966z"/>
<g>
	<path style="fill:#EBF0F3;" d="M338.632,144.966c0,0-61.436-26.279-120.179,0v13.736v164.789h120.179v-164.16V144.966z"/>
	<path style="fill:#EBF0F3;" d="M218.453,144.966c0,0-61.436-26.279-120.179,0v13.736v164.789h120.179v-164.16V144.966z"/>
</g>
<g>
	<path style="fill:#D5D6DB;" d="M218.453,323.491h120.179C338.632,323.491,276.073,297.635,218.453,323.491z"/>
	<path style="fill:#D5D6DB;" d="M98.274,323.491h120.179C218.453,323.491,155.894,297.635,98.274,323.491z"/>
</g>
<g>
	<path style="fill:#E1E6E9;" d="M334.512,166.244c0,0-60.009-28.073-107.323,0v17.179c0,0,41.929-31.006,107.323,0V166.244z"/>
	<path style="fill:#E1E6E9;" d="M334.512,193.479c0,0-60.009-28.073-107.323,0v17.179c0,0,41.929-31.006,107.323,0V193.479z"/>
	<path style="fill:#E1E6E9;" d="M334.512,220.714c0,0-60.009-28.073-107.323,0v17.179c0,0,41.929-31.006,107.323,0V220.714z"/>
	<path style="fill:#E1E6E9;" d="M334.512,247.949c0,0-60.009-28.073-107.323,0v17.179c0,0,41.929-31.006,107.323,0V247.949z"/>
	<path style="fill:#E1E6E9;" d="M334.512,275.184c0,0-60.009-28.073-107.323,0v17.179c0,0,41.929-31.006,107.323,0V275.184z"/>
	<path style="fill:#E1E6E9;" d="M212.025,168.339c0,0-60.009-28.073-107.323,0v17.179c0,0,41.929-31.006,107.323,0V168.339z"/>
	<path style="fill:#E1E6E9;" d="M212.025,195.574c0,0-60.009-28.073-107.323,0v17.179c0,0,41.929-31.006,107.323,0V195.574z"/>
	<path style="fill:#E1E6E9;" d="M212.025,222.809c0,0-60.009-28.073-107.323,0v17.179c0,0,41.929-31.006,107.323,0V222.809z"/>
	<path style="fill:#E1E6E9;" d="M212.025,250.044c0,0-60.009-28.073-107.323,0v17.179c0,0,41.929-31.006,107.323,0V250.044z"/>
	<path style="fill:#E1E6E9;" d="M212.025,277.279c0,0-60.009-28.073-107.323,0v17.179c0,0,41.929-31.006,107.323,0V277.279z"/>
</g>
<path style="fill:#D5D6DB;" d="M218.534,144.813c0,0,25.769-41.863,89.978-38.874v176.938c0,0-76.783-9.636-89.978,40.614V144.813z"
	/>
<polygon style="fill:#E56353;" points="219.49,326.827 216.557,326.827 216.557,144.244 218.453,144.966 219.49,143.405 "/>
<g>
	<path style="fill:#E1E6E9;" d="M225.232,150.347c0,0,21.364-34.707,74.599-32.229v13.989c0,0-63.659-4.403-74.599,37.258V150.347z"
		/>
	<path style="fill:#E1E6E9;" d="M225.232,176.034c0,0,21.364-34.707,74.599-32.229v13.989c0,0-63.659-4.403-74.599,37.259V176.034z"
		/>
	<path style="fill:#E1E6E9;" d="M225.232,201.721c0,0,21.364-34.707,74.599-32.229v13.989c0,0-63.659-4.403-74.599,37.259V201.721z"
		/>
	<path style="fill:#E1E6E9;" d="M225.232,227.408c0,0,21.364-34.707,74.599-32.229v13.989c0,0-63.659-4.403-74.599,37.258V227.408z"
		/>
	<path style="fill:#E1E6E9;" d="M225.232,253.096c0,0,21.364-34.707,74.599-32.229v13.989c0,0-63.659-4.403-74.599,37.259V253.096z"
		/>
	<path style="fill:#E1E6E9;" d="M225.232,278.783c0,0,21.364-34.707,74.599-32.229v13.989c0,0-63.659-4.403-74.599,37.259V278.783z"
		/>
</g>
<g>
</g>
<g>
</g>
<g>
</g>
<g>
</g>
<g>
</g>
<g>
</g>
<g>
</g>
<g>
</g>
<g>
</g>
<g>
</g>
<g>
</g>
<g>
</g>
<g>
</g>
<g>
</g>
<g>
</g>
</svg>
