<svg id="Calque_1" data-name="Calque 1" xmlns="http://www.w3.org/2000/svg" viewBox="0 0 466.67 87.66"><title>logotype</title><path d="M409.47,421.29c-0.4-.09-0.8-0.17-1.21-0.23a3.61,3.61,0,0,0-2.69.63,0.79,0.79,0,0,1-1.37.1,3,3,0,0,0-.07-0.67,25.18,25.18,0,0,0-5.33-3.9,3.33,3.33,0,0,0-.92.13,3.26,3.26,0,0,0-.7.38,3.08,3.08,0,0,0-2.28-1,3.19,3.19,0,0,0-.91.14,3,3,0,0,0-1.42,1,3.11,3.11,0,0,0-2.6-1.4,3.15,3.15,0,0,0-.91.14,2.65,2.65,0,0,0-.62.33,6,6,0,0,0-10,6.39,5.75,5.75,0,0,0-.12.83,5.57,5.57,0,0,0,.46,2.46,5.68,5.68,0,0,0-.13.9,5.25,5.25,0,0,0,.47,2.38,5.06,5.06,0,0,0-.14,1,4.93,4.93,0,0,0,.5,2.35,4.72,4.72,0,0,0-.17,1,4.51,4.51,0,0,0,.53,2.3,4.27,4.27,0,0,0-.2,1.05,4.21,4.21,0,0,0,.56,2.27,3.66,3.66,0,0,0,.38,3.32,3.11,3.11,0,0,0,.39,3.24,3.11,3.11,0,0,0-.34,1.25,3.05,3.05,0,0,0,.74,2.1A2.62,2.62,0,0,0,381,451a2.72,2.72,0,1,0,5-1.21,2.85,2.85,0,0,0,.46-3.33,3.33,3.33,0,0,0,.74-1.88,3.42,3.42,0,0,0-.24-1.39,3.71,3.71,0,0,0,.63-1.93,3.81,3.81,0,0,0-.2-1.37,4.09,4.09,0,0,0,.61-2,4.3,4.3,0,0,0-.18-1.33,4.5,4.5,0,0,0,.57-2,4.45,4.45,0,0,0-.15-1.29,4.88,4.88,0,0,0,.56-2,5.06,5.06,0,0,0-.12-1.26,5.15,5.15,0,0,0,.42-3.31,5.54,5.54,0,0,0,.51-2.09,5.89,5.89,0,0,0-.09-1.24,5,5,0,0,0,.25-0.7l0.13,0a3.41,3.41,0,0,0,.92-0.14,3.09,3.09,0,0,0,1.42-1,3.11,3.11,0,0,0,2.59,1.4,3.2,3.2,0,0,0,.92-0.14,3,3,0,0,0,.7-0.37,23.06,23.06,0,0,1,4.41,2.69,3,3,0,0,0,.06.67,3.06,3.06,0,0,0,1.44,1.76,3,3,0,0,0-.43.53,12.41,12.41,0,0,1,.42,5.88,3,3,0,0,1,.39,4.28,3,3,0,0,0,.94,1.42,3.2,3.2,0,0,0-.71.87,3.09,3.09,0,0,0-.23,2.38,3,3,0,0,0,.83,1.3,3.1,3.1,0,0,0-.83,3.12,2.89,2.89,0,0,0,.34.68l-0.1,0a3.08,3.08,0,0,0-2.13,3.36,3,3,0,0,0,.05,1.45,3.11,3.11,0,0,0,3,2.22,3,3,0,0,0,.91-0.14,3.13,3.13,0,0,0,1.85-1.52,8.93,8.93,0,0,0,.23-3.29,3,3,0,0,0-.34-0.68h0.1a3.13,3.13,0,0,0,2.08-3.91,3,3,0,0,0-.83-1.3,3,3,0,0,0-.11-4.53,3.11,3.11,0,0,0,.94-3.25,3,3,0,0,0-1-1.46,2.91,2.91,0,0,0,.36-0.44,3.09,3.09,0,0,0,.23-2.38,3,3,0,0,1-.65-3.5,2.73,2.73,0,0,0-.18-0.37l0.32,0.06c8.16,1.8,13.36,10.6,11.84,20a3.61,3.61,0,0,0,2.78,4.11l0.2,0a3.61,3.61,0,0,0,4.14-3,26.26,26.26,0,0,0-3.46-18.07A22,22,0,0,0,409.47,421.29Z" transform="translate(-64.52 -377.15)"/><path d="M325.68,413.41a2.54,2.54,0,0,0,.89.22,2.46,2.46,0,0,0,1.53-.49,2.18,2.18,0,0,0,2.46-.29,1.94,1.94,0,0,0,3-1.6,1.93,1.93,0,0,0-3-1.78,2.21,2.21,0,0,0-1.37-.59,2.17,2.17,0,0,0-1.05.24,2.45,2.45,0,0,0-1.37-.54,2.53,2.53,0,0,0-1.05.2,2.76,2.76,0,0,0-1.38-.49,2.73,2.73,0,0,0-1,.16,3,3,0,0,0-1.39-.45,2.9,2.9,0,0,0-1,.15,3.24,3.24,0,0,0-1.45-.45,3.15,3.15,0,0,0-.92.15,3.48,3.48,0,0,0-1.5-.44,3.35,3.35,0,0,0-.85.13,3.79,3.79,0,0,0-1.58-.43,4,4,0,0,0-.89.07,4.29,4.29,0,0,0-.13-1.79,4.33,4.33,0,0,0-.32-0.65,4.18,4.18,0,0,0,.47-1.58,4.26,4.26,0,0,0-.15-1.72,4.56,4.56,0,0,0-.56-1.15,4.24,4.24,0,0,0,.71-2.77,4.62,4.62,0,0,0-.17-1.1,4.17,4.17,0,0,0-.81-1.43,4.06,4.06,0,0,0,1.38-2.05s0-.06,0-0.09a4.09,4.09,0,0,0,.21-0.76,2.71,2.71,0,0,0,0-.47,4.08,4.08,0,0,0,.55-1.43,4.13,4.13,0,0,0,.79-1.38,4.27,4.27,0,0,0,.82-0.88,7.34,7.34,0,0,1,2-1.63,4.77,4.77,0,0,0,.9-0.36,4.24,4.24,0,0,0,2-.41,4.11,4.11,0,0,0,.74-0.13,4,4,0,0,0,1.21.29l0.39,0a4.13,4.13,0,0,0,4-3v0a4.2,4.2,0,0,0,.23-0.8,4.12,4.12,0,0,0-1-3.07,4.17,4.17,0,0,0-2.84-1.51,4.22,4.22,0,0,0-1.5.13,4.25,4.25,0,0,0-3.42.1,4.1,4.1,0,0,0-1.63.49,13.33,13.33,0,0,0-5.41,2.72,9.84,9.84,0,0,0-3.12,3.41,4.17,4.17,0,0,0-1.49,2.51,4.11,4.11,0,0,0-1,2.38c0,0.13,0,.27,0,0.44a4.23,4.23,0,0,0,.33,4.86,4.62,4.62,0,0,0-1.2,5.31,3.81,3.81,0,0,0,.39.6,4.28,4.28,0,0,0-.75,2,4.22,4.22,0,0,0,.14,1.76,4.28,4.28,0,0,0,.33.66,4.2,4.2,0,0,0-.43,2.54,4.25,4.25,0,0,0,.1,1.93l0,0a4.44,4.44,0,0,0-.36,1.53,4.48,4.48,0,0,0,.24,1.6,4,4,0,0,0,.81,3.28,4.21,4.21,0,0,0-.71,3.8,4.32,4.32,0,0,0,.75,1.38,4.15,4.15,0,0,0-.44.54,4.17,4.17,0,0,0,.4,4.54,4.1,4.1,0,0,0,0,5.13,4.21,4.21,0,0,0-.71,3.8,4.25,4.25,0,0,0,.75,1.37,3.87,3.87,0,0,0-.44.54,4.25,4.25,0,0,0-.31,3.21,4.14,4.14,0,0,0,.71,1.33,4.1,4.1,0,0,0,0,5.13,4.23,4.23,0,0,0-.71,3.8,4.16,4.16,0,0,0,.71,1.32,4.2,4.2,0,0,0,3.32,6.78,4.31,4.31,0,0,0,1.24-.18,4.61,4.61,0,0,0,.69-0.37l0.11-.06a4.11,4.11,0,0,0,1.15-1l0.05-.06a3.74,3.74,0,0,0,.48-0.59,4.12,4.12,0,0,0-.44-4.58,3.34,3.34,0,0,0,.44-0.54,4.19,4.19,0,0,0,.31-3.21,4.06,4.06,0,0,0-.75-1.37,4,4,0,0,0,.44-0.54,4.19,4.19,0,0,0,.31-3.21,4.05,4.05,0,0,0-.75-1.37,3.77,3.77,0,0,0,.44-0.54,4.14,4.14,0,0,0-.39-4.54,4.11,4.11,0,0,0-.05-5.18,3.77,3.77,0,0,0,.44-0.54,4.13,4.13,0,0,0-.39-4.54,4.18,4.18,0,0,0,.7-3.8,4.09,4.09,0,0,0-.7-1.32,4.21,4.21,0,0,0,.7-3.81,4.1,4.1,0,0,0-.75-1.37,4,4,0,0,0,.44-0.54c0-.06,0-0.12.07-0.18l0.28-.12a3.39,3.39,0,0,0,.66.1,3.85,3.85,0,0,0,1.83-.39,3.26,3.26,0,0,0,.62.15,3.5,3.5,0,0,0,1.73-.43,2.89,2.89,0,0,0,.71.18,3.25,3.25,0,0,0,1.68-.43,2.73,2.73,0,0,0,.77.19,3,3,0,0,0,1.62-.44,2.84,2.84,0,0,0,.83.2A2.73,2.73,0,0,0,325.68,413.41Z" transform="translate(-64.52 -377.15)"/><path d="M273.81,450.07a3.19,3.19,0,0,0-1,.15,3.49,3.49,0,0,0-1.37.86,3.46,3.46,0,0,0-.74-0.12,3.41,3.41,0,0,0-1,.15,3.33,3.33,0,0,0-1.17.63,3.43,3.43,0,0,0-1.82-.56,3.51,3.51,0,0,0-1,.15,3.43,3.43,0,0,0-1.82,1.41,3.34,3.34,0,0,0-1.61-.45,3.43,3.43,0,0,0-1,.15,0.8,0.8,0,0,0-.12.06c0-.06,0-0.12,0-0.19a3.28,3.28,0,0,0,1.86-5,3.35,3.35,0,0,0,.54-0.66,3.48,3.48,0,0,0,.26-2.63,3.34,3.34,0,0,0-.27-0.54,3.65,3.65,0,0,0,.68-0.83,3.42,3.42,0,0,0,.25-2.62l0-.07a3.68,3.68,0,0,0,.2-1.39c0-.07.12-0.13,0.17-0.21a3.42,3.42,0,0,0,.25-2.62,3.33,3.33,0,0,0-.4-0.83,0.15,0.15,0,0,1,0,0,4,4,0,0,0,0-1.11,4,4,0,0,0,0-1.11,4.05,4.05,0,0,0,0-1.12,4,4,0,0,0,0-1.11,4,4,0,0,0,0-1.12,4,4,0,0,0,0-1.11,4,4,0,0,0,0-1.11,4,4,0,0,0,0-1.11,4,4,0,0,0,0-1.12,4,4,0,0,0,0-1.11,4,4,0,0,0,0-1.12,4,4,0,0,0,0-1.11,4,4,0,0,0,0-1.11,4,4,0,0,0,0-1.11,4,4,0,0,0,0-1.11,4,4,0,0,0,0-1.12,4,4,0,0,0,0-1.11,4,4,0,0,0,0-1.11,4,4,0,0,0,0-1.11,4,4,0,0,0,0-1.12,4,4,0,0,0,0-1.11,4,4,0,0,0,0-1.12,4,4,0,0,0,0-1.11,4,4,0,0,0,0-1.11,4,4,0,0,0,0-1.11,4,4,0,0,0,0-1.11,4.06,4.06,0,0,0,0-.92,3.6,3.6,0,0,0,1.12-3.07,3.39,3.39,0,0,0,0-1,3.55,3.55,0,0,0,0-1.26,3.8,3.8,0,0,0,0-1.36,4.16,4.16,0,0,0,0-1,4.11,4.11,0,0,0,0-.8,19.91,19.91,0,0,0-.14-2.41,3.67,3.67,0,0,0-3.52-2.6,3.48,3.48,0,0,0-1.07.16,3.66,3.66,0,0,0-2.58,4,3.38,3.38,0,0,0,0,.86,2.74,2.74,0,0,0,0,.8,3.33,3.33,0,0,0,0,1,3.46,3.46,0,0,0,0,1.35,3.79,3.79,0,0,0,0,1.27,3.44,3.44,0,0,0,0,.56,3.68,3.68,0,0,0-1.2,3.27,4.1,4.1,0,0,0,0,1.12,4,4,0,0,0,0,1.11,4.07,4.07,0,0,0,0,1.12,4,4,0,0,0,0,1.11,4,4,0,0,0,0,1.11,4,4,0,0,0,0,1.11,4,4,0,0,0,0,1.11,4.07,4.07,0,0,0,0,1.12,4,4,0,0,0,0,1.11,4,4,0,0,0,0,1.11,4,4,0,0,0,0,1.11,4,4,0,0,0,0,1.11,4.07,4.07,0,0,0,0,1.12,4,4,0,0,0,0,1.11,4,4,0,0,0,0,1.11,4,4,0,0,0,0,1.11,4,4,0,0,0,0,1.11,4.07,4.07,0,0,0,0,1.12,4,4,0,0,0,0,1.11,4,4,0,0,0,0,1.11,4.07,4.07,0,0,0,0,1.12,4,4,0,0,0,0,1.11,4,4,0,0,0,0,1.11,4,4,0,0,0,0,1.11,4.07,4.07,0,0,0,0,1.12,4,4,0,0,0,0,1.11,4.07,4.07,0,0,0,0,1.12,4,4,0,0,0,0,1.11,4,4,0,0,0,0,1.11,4.07,4.07,0,0,0,0,1.12,3.64,3.64,0,0,0,.12,1.64,3.56,3.56,0,0,0,.38.77,3.53,3.53,0,0,0,.11,1.42,0.79,0.79,0,0,1-.41,1.38,3.42,3.42,0,0,0-.25,2.63,3.31,3.31,0,0,0,.35.71,3.43,3.43,0,0,0-.54.65,3.37,3.37,0,0,0-.25,2.59,3.44,3.44,0,0,0,1.07,6.7,3.24,3.24,0,0,0,1-.16s0.08,0,.12-0.06a2.06,2.06,0,0,0,0,.23,3.38,3.38,0,0,0,6.11.87,3.37,3.37,0,0,0,1.62.45,3.6,3.6,0,0,0,1-.15,3.46,3.46,0,0,0,1.17-.63,3.38,3.38,0,0,0,1.82.56,3.28,3.28,0,0,0,2.37-1,3.29,3.29,0,0,0,.74.12,3.41,3.41,0,0,0,1-.15,3.44,3.44,0,0,0,2-1.67A3.44,3.44,0,0,0,273.81,450.07Z" transform="translate(-64.52 -377.15)"/><path d="M479.84,446.8a3,3,0,0,0-.44,0,4,4,0,0,0-.85,0,38.72,38.72,0,0,0-1.73,0c-0.09,0-.19,0-0.29,0s0-.2,0-0.31a3.82,3.82,0,0,0,0-1.08,3.85,3.85,0,0,0,0-1.09,3.79,3.79,0,0,0,0-1.08,3.85,3.85,0,0,0,0-1.09,3.79,3.79,0,0,0,0-1.08,3.76,3.76,0,0,0,0-1.08,3.85,3.85,0,0,0,0-1.09,3.85,3.85,0,0,0,0-1.09,3.79,3.79,0,0,0,0-1.08,3.85,3.85,0,0,0,0-1.09,3.82,3.82,0,0,0,0-1.08,3.79,3.79,0,0,0,0-1.08,3.85,3.85,0,0,0,0-1.09,3.79,3.79,0,0,0,0-1.08,3.85,3.85,0,0,0,0-1.09,3.76,3.76,0,0,0,0-1.08,3.85,3.85,0,0,0,0-1.09,3.79,3.79,0,0,0,0-1.08,3.85,3.85,0,0,0,0-1.09,3.85,3.85,0,0,0,0-1.09,3.79,3.79,0,0,0,0-1.08,3.79,3.79,0,0,0,0-1.08,0.38,0.38,0,0,0,0-.1,3.83,3.83,0,0,0,0-1,0.32,0.32,0,0,0,0-.09,3.86,3.86,0,0,0,0-1,0.32,0.32,0,0,0,0-.09,3.67,3.67,0,0,0,0-1,0.32,0.32,0,0,0,0-.09,3.79,3.79,0,0,0,0-1,0.35,0.35,0,0,0,0-.09,3.86,3.86,0,0,0,0-1,3.44,3.44,0,0,0,0-1c0-.06,0-0.12,0-0.19a3.85,3.85,0,0,0,0-1.09,3.82,3.82,0,0,0,0-1.08,3.82,3.82,0,0,0,0-1.08,3.82,3.82,0,0,0,0-1.08,3.79,3.79,0,0,0,0-1.08,3.82,3.82,0,0,0,0-1.08,3.82,3.82,0,0,0,0-1.08,3.79,3.79,0,0,0,0-1.08,3.85,3.85,0,0,0,0-1.09,3.82,3.82,0,0,0,0-1.08,3.82,3.82,0,0,0,0-1.08,3.79,3.79,0,0,0,0-1.08,3.88,3.88,0,0,0,0-1.09,3.79,3.79,0,0,0,0-1.08,3.79,3.79,0,0,0,0-1.08,3.82,3.82,0,0,0,0-1.08,3.85,3.85,0,0,0,0-1.09,3.79,3.79,0,0,0,0-1.08,3.82,3.82,0,0,0,0-1.08,3.82,3.82,0,0,0,0-1.08,3.82,3.82,0,0,0,0-1.08,3.85,3.85,0,0,0,0-1.09,3.79,3.79,0,0,0,0-1.08,3.82,3.82,0,0,0,0-1.08,3.62,3.62,0,1,0-7.16,0,3.3,3.3,0,0,0,0,1.09,3.24,3.24,0,0,0,0,1.08,3.3,3.3,0,0,0,0,1.09,3.27,3.27,0,0,0,0,1.08,3.24,3.24,0,0,0,0,1.08,3.24,3.24,0,0,0,0,1.08,3.27,3.27,0,0,0,0,1.08,3.3,3.3,0,0,0,0,1.09,3.27,3.27,0,0,0,0,1.08,3.27,3.27,0,0,0,0,1.08,3.25,3.25,0,0,0,0,1.08,3.3,3.3,0,0,0,0,1.09,3.27,3.27,0,0,0,0,1.08,3.24,3.24,0,0,0,0,1.08,3.3,3.3,0,0,0,0,1.09,3.3,3.3,0,0,0,0,1.09,3.22,3.22,0,0,0,0,1.08,3.27,3.27,0,0,0,0,1.08,3.27,3.27,0,0,0,0,1.08,3.27,3.27,0,0,0,0,1.08,3.27,3.27,0,0,0,0,1.08,3.27,3.27,0,0,0,0,1.08,3.27,3.27,0,0,0,0,1.08,3.27,3.27,0,0,0,0,1.08,3.22,3.22,0,0,0,0,1.08,0.35,0.35,0,0,0,0,.09,3.52,3.52,0,0,0,0,1,0.29,0.29,0,0,0,0,.09,3.49,3.49,0,0,0,0,1,0.32,0.32,0,0,0,0,.09,3.49,3.49,0,0,0,0,1,0.35,0.35,0,0,0,0,.09,3.49,3.49,0,0,0,0,1,0.32,0.32,0,0,0,0,.09,3.46,3.46,0,0,0,0,1,3.55,3.55,0,0,0,0,1c0,0.06,0,.12,0,0.17a3.27,3.27,0,0,0,0,1.08,3.24,3.24,0,0,0,0,1.08,3.32,3.32,0,0,0,0,1.09,3.27,3.27,0,0,0,0,1.08,3.24,3.24,0,0,0,0,1.08,3.27,3.27,0,0,0,0,1.08,3.27,3.27,0,0,0,0,1.08,3.27,3.27,0,0,0,0,1.08,3.24,3.24,0,0,0,0,1.08,3.3,3.3,0,0,0,0,1.09,3.27,3.27,0,0,0,0,1.08,3.25,3.25,0,0,0,0,1.08,3.3,3.3,0,0,0,0,1.09,3.25,3.25,0,0,0,0,1.08,3.27,3.27,0,0,0,0,1.08,3.27,3.27,0,0,0,0,1.08,3.27,3.27,0,0,0,0,1.08,3.25,3.25,0,0,0,0,1.08,3.3,3.3,0,0,0,0,1.09,3.3,3.3,0,0,0,0,1.09,3.22,3.22,0,0,0,0,1.08,3.3,3.3,0,0,0,0,1.09,3.3,3.3,0,0,0,0,1.09,3.22,3.22,0,0,0,0,1.08c0,0.06,0,.12,0,0.17s0,0.12,0,.19a3.59,3.59,0,0,0,.12,1.21s0,0,0,.05a3.57,3.57,0,0,0,3.43,2.53H473l0.3,0a3.76,3.76,0,0,0,.93,0,20.74,20.74,0,0,1,2.54,0,3.39,3.39,0,0,0,1,0,2.3,2.3,0,0,0,.39,0,2.43,2.43,0,0,0,.39,0,3.64,3.64,0,0,0,.84,0,3.52,3.52,0,0,0,1.5-.12A3.58,3.58,0,0,0,479.84,446.8Z" transform="translate(-64.52 -377.15)"/><path d="M457.44,448a3.11,3.11,0,0,0-.45,0,4.46,4.46,0,0,0-.83,0,4.69,4.69,0,0,0-.78,0h-0.16a4,4,0,0,0-.95-2.8l0,0a4.63,4.63,0,0,0,.44-0.53,4.27,4.27,0,0,0-.45-4.75l0,0a3.55,3.55,0,0,0,.76-3.86,4.4,4.4,0,0,0-.73-1.38,4,4,0,0,0,.41-0.61,4.32,4.32,0,0,0,.32-3.32,4.17,4.17,0,0,0-.78-1.42v0a4.12,4.12,0,0,0,.44-0.54,4.34,4.34,0,0,0,.32-3.32,4.27,4.27,0,0,0-.78-1.43,4.07,4.07,0,0,0,.46-0.56,4.36,4.36,0,0,0,.32-3.33,4.29,4.29,0,0,0-.78-1.42h0a4.11,4.11,0,0,0,.44-0.54,4.34,4.34,0,0,0,.32-3.32,4.27,4.27,0,0,0-.78-1.43l0,0a4.13,4.13,0,0,0,0-5.28h0a4.16,4.16,0,0,0,.44-0.55,4.34,4.34,0,0,0,.32-3.32,4.22,4.22,0,0,0-.78-1.43h0a4,4,0,0,0,.46-0.56,4.34,4.34,0,0,0,.32-3.32,4.27,4.27,0,0,0-.78-1.43l0,0a4,4,0,0,0,.44-0.54,4.34,4.34,0,0,0,.32-3.32,4.25,4.25,0,0,0-.78-1.42v0a4.09,4.09,0,0,0,.44-0.54,4.36,4.36,0,0,0-3.84-6.41,4.51,4.51,0,0,0-1.27.19,3.93,3.93,0,0,0-.7.37l-0.15.08a4.25,4.25,0,0,0-1.16,1l-0.09.11a4.31,4.31,0,0,0-.49.59,4.26,4.26,0,0,0,.41,4.7,5.06,5.06,0,0,0-.41.62,4.44,4.44,0,0,0-.32,3.33,4.31,4.31,0,0,0,.78,1.42,4.92,4.92,0,0,0-.46.57,4.41,4.41,0,0,0-.32,3.31,4.36,4.36,0,0,0,.73,1.38,4.37,4.37,0,0,0-.73,3.94,4.31,4.31,0,0,0,.78,1.42,4.77,4.77,0,0,0-.46.56,4.45,4.45,0,0,0-.32,3.33,4.29,4.29,0,0,0,.78,1.42,4.87,4.87,0,0,0-.46.56,4.26,4.26,0,0,0,.41,4.7,4.37,4.37,0,0,0-.73,3.93,4.31,4.31,0,0,0,.73,1.38,4.25,4.25,0,0,0,0,5.31,5.1,5.1,0,0,0-.41.62,4.45,4.45,0,0,0-.32,3.33,4.38,4.38,0,0,0,.78,1.42,4.87,4.87,0,0,0-.46.56,4.41,4.41,0,0,0-.32,3.31,4.31,4.31,0,0,0,.73,1.38,4.25,4.25,0,0,0,0,5.31,4.35,4.35,0,0,0-.74,3.93,4.27,4.27,0,0,0,.52,1,3.49,3.49,0,0,0-.15,2.38,3.55,3.55,0,0,0,3.42,2.53,3,3,0,0,0,.44,0,3.8,3.8,0,0,0,.94,0,3.86,3.86,0,0,0,1.22,0,3.78,3.78,0,0,0,1.32,0,3.71,3.71,0,0,0,1,0l0.39,0,0.39,0a3.88,3.88,0,0,0,.83,0,3.54,3.54,0,0,0,1.5-.12A3.58,3.58,0,0,0,457.44,448Z" transform="translate(-64.52 -377.15)"/><path d="M152.4,444.07a14.85,14.85,0,0,1-7.63-7.4,26.64,26.64,0,0,0-.31-15.4c0-.12.08-0.25,0.13-0.37a3.68,3.68,0,0,0-1.08-4.27,4,4,0,0,0-1.08-3.91,4.24,4.24,0,0,0,.13-2.82,4.3,4.3,0,0,0-1.31-2,4.28,4.28,0,0,0,.23-3.07,4.24,4.24,0,0,0-1.82-2.35l0,0a4.23,4.23,0,0,0-1.82-5.8,4.23,4.23,0,0,0-2.28-5.7,4.21,4.21,0,0,0-.17-1.49,4.29,4.29,0,0,0-4.12-3.06,4.2,4.2,0,0,0-1.26.19l-0.11,0s0-.08,0-0.12a4.28,4.28,0,0,0-4.12-3.05,4.33,4.33,0,0,0-1.26.19h0a4.25,4.25,0,0,0-3.27-1.56,4.46,4.46,0,0,0-1.26.18,4.71,4.71,0,0,0-.7.37l-0.14.08-0.15.08a4.25,4.25,0,0,0-3.06-1.35,4.32,4.32,0,0,0-1.26.19,4.23,4.23,0,0,0-1.7,1,4.22,4.22,0,0,0-2.1-.6,4.49,4.49,0,0,0-1.26.19,4.4,4.4,0,0,0-.72.38l-0.09.05a4.15,4.15,0,0,0-1.17,1l-0.09.12a3.84,3.84,0,0,0-.47.58,4.31,4.31,0,0,0,3.8,6.33,4.21,4.21,0,0,0,1.27-.19,4.1,4.1,0,0,0,.69-0.37l0.13-.07a4.33,4.33,0,0,0,.85-0.59,4.29,4.29,0,0,0,2.13.61,3,3,0,0,0,2-.56l0.12-.06,0.17-.09a4.23,4.23,0,0,0,3.06,1.35,4.61,4.61,0,0,0,1.26-.19h0a4.26,4.26,0,0,0,3.27,1.56,4.49,4.49,0,0,0,1.26-.19l0.11-.06s0,0.09,0,.13a4.26,4.26,0,0,0,2.48,2.69,4.31,4.31,0,0,0,.17,1.49A4.24,4.24,0,0,0,132,398.7a4.21,4.21,0,0,0,1.61,5.36,4.31,4.31,0,0,0-.48,2.6,27,27,0,1,0,8,38,21.8,21.8,0,0,0,4,3.8,1.74,1.74,0,0,0-.32.32,1.25,1.25,0,0,0,.48,2.4,1.29,1.29,0,0,0,.45-0.08,1.65,1.65,0,0,0,.93,0,2,2,0,0,0,.92,0,2.42,2.42,0,0,0,.93,0,2.79,2.79,0,0,0,.93,0,3.19,3.19,0,0,0,.93,0,4.18,4.18,0,0,0,.56,0,3.52,3.52,0,0,0,1.34-.29,3.67,3.67,0,0,0,2.13-2A3.73,3.73,0,0,0,152.4,444.07Zm-33.59-2.42a12.1,12.1,0,1,1,12.1-12.09A12.11,12.11,0,0,1,118.81,441.65Z" transform="translate(-64.52 -377.15)"/><path d="M430.46,404.61a1.11,1.11,0,0,0-.09.48,1.15,1.15,0,1,0,2.3-.12,1.08,1.08,0,0,0-.14-0.47,2,2,0,0,0,.86-1.71,0.94,0.94,0,0,0,0-.11,2.81,2.81,0,0,0,.73-1.92,3.63,3.63,0,0,0,.65-1.7,4.49,4.49,0,0,0,.77-1.94,5.4,5.4,0,0,0,.68-1.85,6.2,6.2,0,1,0-10.39.6,5.33,5.33,0,0,0,.88,1.75,4.42,4.42,0,0,0,1,1.85,3.62,3.62,0,0,0,.82,1.61,2.82,2.82,0,0,0,.94,1.83,1,1,0,0,0,0,.12A2,2,0,0,0,430.46,404.61Z" transform="translate(-64.52 -377.15)"/><path d="M439.17,449.95a3.5,3.5,0,0,0-.07-1.08,3.56,3.56,0,0,0-.07-1.09,3.49,3.49,0,0,0-.07-1.08,3.68,3.68,0,0,0-.06-1.08,4,4,0,0,0-.07-1.08,3.49,3.49,0,0,0-.08-1.08,3.56,3.56,0,0,0-.06-1.09,3.65,3.65,0,0,0-.07-1.08,3.51,3.51,0,0,0-.07-1.08,3.3,3.3,0,0,0-.07-1.08,3.52,3.52,0,0,0-.06-1.08,3.67,3.67,0,0,0-.07-1.08,3.61,3.61,0,0,0-.07-1.08,3.65,3.65,0,0,0-.07-1.08,3.22,3.22,0,0,0-.07-1.09,3.34,3.34,0,0,0-.06-1.07,3.56,3.56,0,0,0-.07-1.09,3.19,3.19,0,0,0-.08-1.08,3.45,3.45,0,0,0-.06-1.07,3.72,3.72,0,0,0-.07-1.09,3.61,3.61,0,0,0-.07-1.07,3.66,3.66,0,0,0-.07-1.08,3.4,3.4,0,0,0-.06-1.08,3.32,3.32,0,0,0-.07-1.08,3.85,3.85,0,0,0-.07-1.09,3.64,3.64,0,0,0-.06-1.08,4,4,0,0,0-.07-1.08,3.83,3.83,0,0,0-.07-1.08,3.63,3.63,0,0,0-.07-1.08A3.56,3.56,0,0,0,437,417a3.61,3.61,0,0,0-3.62-2.35,3.74,3.74,0,0,0-1,.23A3.63,3.63,0,0,0,430,419a3.53,3.53,0,0,0,.07,1.08,3.41,3.41,0,0,0,.07,1.08,3.77,3.77,0,0,0,.06,1.08,222.8,222.8,0,0,0,.14,2.17,3.65,3.65,0,0,0,.06,1.08,3.37,3.37,0,0,0,.07,1.08,3.54,3.54,0,0,0,.07,1.08,136.59,136.59,0,0,0,.14,2.16,3.52,3.52,0,0,0,.06,1.08,3.59,3.59,0,0,0,.07,1.09,3.64,3.64,0,0,0,.07,1.08,4,4,0,0,0,.07,1.08,3.28,3.28,0,0,0,.07,1.08,3.53,3.53,0,0,0,.06,1.08,3.39,3.39,0,0,0,.07,1.08,3.51,3.51,0,0,0,.06,1.08,3.83,3.83,0,0,0,.07,1.08,3.65,3.65,0,0,0,.08,1.08,3.25,3.25,0,0,0,.07,1.08,3.5,3.5,0,0,0,.06,1.08,3.29,3.29,0,0,0,.07,1.08,3.42,3.42,0,0,0,.06,1.08,3.65,3.65,0,0,0,.07,1.08,3.73,3.73,0,0,0,.07,1.09,3.79,3.79,0,0,0,.07,1.08,3.69,3.69,0,0,0,.07,1.08,3.64,3.64,0,0,0,.08,1.08,3.39,3.39,0,0,0,.06,1.08,3.57,3.57,0,0,0,.21,1.59,3.61,3.61,0,0,0,3.62,2.35,3.79,3.79,0,0,0,1.05-.23,3.65,3.65,0,0,0,2.26-4.16A3.56,3.56,0,0,0,439.17,449.95Z" transform="translate(-64.52 -377.15)"/><path d="M248.41,418.75c-0.27-14-10.75-25.28-23.55-25.28h-0.08v0.08h0l0-.08h-0.07c-12.79,0-23.29,11.31-23.56,25.28,0,0,0,.07,0,0.1s0,0.09,0,.13,0,0.09,0,.13,0,0.06,0,.09A27.51,27.51,0,0,0,204,431.07s0,0.06,0,.1,0,0.12,0,.18a3.93,3.93,0,0,0,.62,5.47c0.08,0.36.17,0.71,0.26,1.07a3.92,3.92,0,0,0,1.64,4.63c0.1,0.22.19,0.45,0.3,0.67a4,4,0,0,0,2.34,5,4.12,4.12,0,0,0,4.11,4.25,4,4,0,0,0,1-.17l0.48,0.34a4.06,4.06,0,0,0,3.76,2.55,4.26,4.26,0,0,0,.66-0.1c0.38,0.16.76,0.32,1.15,0.46a4,4,0,0,0,2.52.89c0.15,0,.3-0.06.44-0.07a21.85,21.85,0,0,0,3.42.4,4,4,0,0,0,1.21.2,4.54,4.54,0,0,0,1.25-.18,4.08,4.08,0,0,0,1.59-1,4.11,4.11,0,1,0,2-7.71,4.14,4.14,0,0,0-2.84,1.14,4.13,4.13,0,0,0-3.21-.31,4.26,4.26,0,0,0-.73.34l-0.43-.07a4.14,4.14,0,0,0-2.66-1,3.83,3.83,0,0,0-.65.1,14.77,14.77,0,0,1-1.8-.87l-0.2-.11a17.11,17.11,0,0,1-5.54-5.34,21.7,21.7,0,0,0,10,2.48h0.17c12.8,0,23.29-11.31,23.56-25.28,0,0,0-.06,0-0.1s0-.09,0-0.13,0-.09,0-0.13S248.41,418.79,248.41,418.75Zm-23.73-17.86h0.17c8.81,0,16,8.13,16.15,18.14-0.17,10-7.37,18-16.15,18h-0.17c-8.79,0-16-8.1-16.15-18.09C208.68,409,215.89,400.89,224.68,400.89Z" transform="translate(-64.52 -377.15)"/><path d="M171.92,417.49h0a3.58,3.58,0,0,0-1.87.58c-0.07,0-.15.06-0.22,0.1h0a3.2,3.2,0,0,0-.82.37h0a2.63,2.63,0,0,0-.83.37h0a2.26,2.26,0,0,0-.84.37,1.92,1.92,0,0,0-.84.37l0,0a4.31,4.31,0,0,0,0-.62,4,4,0,0,0,0-1.11,4,4,0,0,0,0-1.11,4,4,0,0,0,0-1.11,4,4,0,0,0,0-1.11,4,4,0,0,0,0-1.11,4,4,0,0,0,0-1.11,4,4,0,0,0,0-1.11,4.07,4.07,0,0,0,0-1.12,4,4,0,0,0,0-1.11,4,4,0,0,0,0-1.11,4,4,0,0,0,0-1.11,4,4,0,0,0,0-1.11,4.13,4.13,0,0,0,0-1.13,4,4,0,0,0,0-1.11,4,4,0,0,0,0-1.11,4,4,0,0,0,0-1.11,4.07,4.07,0,0,0,0-1.12,4,4,0,0,0,0-1.11,4.07,4.07,0,0,0,0-1.12,4,4,0,0,0,0-1.11,4,4,0,0,0,0-1.11,4,4,0,0,0,0-1.11,4,4,0,0,0,0-1.11,4.1,4.1,0,0,0,0-1.12,3.81,3.81,0,0,0-.12-1.65,3.73,3.73,0,0,0-1.35-1.91,3.83,3.83,0,0,0,0-.74,3.75,3.75,0,0,0,0-1,4.11,4.11,0,0,0,0-.8,4.17,4.17,0,0,0,0-.87,3.68,3.68,0,0,0-3.65-4.14,3.53,3.53,0,0,0-1.08.16,3.65,3.65,0,0,0-2.57,4,4,4,0,0,0,0,.85,4.2,4.2,0,0,0,0,.8,322.24,322.24,0,0,1,.06,2.34,3.88,3.88,0,0,0,0,1.26,4.44,4.44,0,0,0,0,1,3.56,3.56,0,0,0,.13,1.54,3.66,3.66,0,0,0,1.22,1.79,4,4,0,0,0,0,.75,4,4,0,0,0,0,1.11,4,4,0,0,0,0,1.11,4,4,0,0,0,0,1.11,4,4,0,0,0,0,1.11,4,4,0,0,0,0,1.11,4,4,0,0,0,0,1.12,4,4,0,0,0,0,1.11,4,4,0,0,0,0,1.11,4,4,0,0,0,0,1.11,4,4,0,0,0,0,1.11,4,4,0,0,0,0,1.12,4,4,0,0,0,0,1.11,4,4,0,0,0,0,1.12,4,4,0,0,0,0,1.11,4,4,0,0,0,0,1.12,4,4,0,0,0,0,1.11,4,4,0,0,0,0,1.11,4,4,0,0,0,0,1.11,4,4,0,0,0,0,1.11,4,4,0,0,0,0,1.11,4,4,0,0,0,0,1.11,4,4,0,0,0,0,1.12,4,4,0,0,0,0,1.12,4,4,0,0,0,0,1.11,4,4,0,0,0,0,1.11,4,4,0,0,0,0,1.12,3.8,3.8,0,0,0,0,.89,4.13,4.13,0,0,0,2.87,5.84V432a4.16,4.16,0,0,0-.75,7.89,4.16,4.16,0,0,0,.75,7.89h0a4.16,4.16,0,0,0-.08,8.11,4.14,4.14,0,0,0-3,2.79,2.46,2.46,0,0,0-.47.21,2,2,0,0,0-.84.37,1.64,1.64,0,0,0-.84.37,1.25,1.25,0,0,0,0,2.5,1.58,1.58,0,0,0,.85.35,2,2,0,0,0,.85.35,2.34,2.34,0,0,0,.86.36,2.9,2.9,0,0,0,.85.35,3,3,0,0,0,.86.36,3.58,3.58,0,0,0,1.78.48,3.53,3.53,0,0,0,1-.15,3.47,3.47,0,0,0,1.49-1,4.14,4.14,0,0,0-1.53-7.35,4.16,4.16,0,0,0-.09-8.11,4.16,4.16,0,0,0,.76-7.9A4.16,4.16,0,0,0,162,432v-0.59a4.14,4.14,0,0,0,4.91-4.08,4.11,4.11,0,0,0-.55-2,4.42,4.42,0,0,0,0-.63,4,4,0,0,0,0-1.11,4.29,4.29,0,0,0,0-.67l0.06,0a2.06,2.06,0,0,0,.86.35,2.58,2.58,0,0,0,.85.36,3.15,3.15,0,0,0,.86.35,3.32,3.32,0,0,0,.86.36c0.08,0,.16.06,0.24,0.1a3.62,3.62,0,0,0,1.76.52c10.13,0.06,18.33,7.35,18.27,16.24s-8.15,16.18-18.27,16.24a3.71,3.71,0,0,0,0,7.42h0c14.15-.09,25.67-10.67,25.64-23.58a0.06,0.06,0,0,0,0,0v-0.11C197.59,428.16,186.08,417.58,171.92,417.49Z" transform="translate(-64.52 -377.15)"/><path d="M508.25,405h-0.12v0.07l0-.07h0c-12.55,0-22.83,11.19-22.93,24.94a3.51,3.51,0,0,0,2.39,3.39s0,0.09,0,.14a3.7,3.7,0,0,0,3.56,2.64,3.78,3.78,0,0,0,.69-0.1,4.1,4.1,0,0,0-.82.39,4.16,4.16,0,0,0,1.17,7.46,4,4,0,0,0,.61,3.13,4.09,4.09,0,0,0,2.66,1.78,4.14,4.14,0,0,0,3.7,4.63,3.92,3.92,0,0,0,.57,1.3,4.17,4.17,0,0,0,5.77,1.16l0.08-.06,0.06,0.09a4.14,4.14,0,0,0,3.46,1.86,4.06,4.06,0,0,0,2.27-.68,4.16,4.16,0,0,0,2.3.69,4.09,4.09,0,0,0,2.29-.7,3.86,3.86,0,0,0,.8-0.7,4.19,4.19,0,0,0,2,.51,4.14,4.14,0,0,0,2.3-.7,4,4,0,0,0,1.28-1.37,4.56,4.56,0,0,0,.93.11,4.15,4.15,0,0,0,3.45-6.46,4.15,4.15,0,0,0-5.76-1.16,4,4,0,0,0-1.28,1.36,4.54,4.54,0,0,0-.94-0.1,4.11,4.11,0,0,0-2.29.7,4.05,4.05,0,0,0-.8.7,10.12,10.12,0,0,1-6.56-.51,4.12,4.12,0,0,0-2.29.69l-0.09.06a0.59,0.59,0,0,0-.06-0.1,4.13,4.13,0,0,0-3-1.82A4.51,4.51,0,0,0,503,447a4.09,4.09,0,0,0-2.66-1.77,4.13,4.13,0,0,0-3-4.49,4.06,4.06,0,0,0,.05-1.2,3.89,3.89,0,0,0,.74-0.11,4,4,0,0,0,1.6-1,4,4,0,0,0,2.78,1.18,4.12,4.12,0,0,0,1.18-.18,3.91,3.91,0,0,0,1.28-.68,4,4,0,0,0,1,.16,3.6,3.6,0,0,0,2.3-.78,3.94,3.94,0,0,0,4.24,1.3,3.88,3.88,0,0,0,1.76-1.2,4,4,0,0,0,2.63,1,4.06,4.06,0,0,0,3.55-2.13,4,4,0,0,0,.29-3.06,3.55,3.55,0,0,0-.28-0.56,3.72,3.72,0,0,0,1-.91,3.68,3.68,0,0,0,1.79.5,3.83,3.83,0,0,0,1.09-.16,2.07,2.07,0,0,1,3.12.68h0a3.61,3.61,0,0,0,3.58-3.63C531.1,416.23,520.81,405,508.25,405Zm15.11,20.58a4,4,0,0,0-1.1.15,3.72,3.72,0,0,0-1.84,1.28,3.68,3.68,0,0,0-1.73-.47,3.64,3.64,0,0,0-1.08.16,3.73,3.73,0,0,0-2.49,4.67c0,0.09.09,0.17,0.12,0.26a3.84,3.84,0,0,0-1.22.91,4,4,0,0,0-2.62-1,3.9,3.9,0,0,0-1.18.18,4.1,4.1,0,0,0-1.15.58,4,4,0,0,0-3-1.45,3.76,3.76,0,0,0-1.18.18,4,4,0,0,0-1.3.68,3.88,3.88,0,0,0-1-.16,3.92,3.92,0,0,0-1.17.18,4,4,0,0,0-1.62,1,3.91,3.91,0,0,0-3.93-1,3.8,3.8,0,0,0-1,.49,3.72,3.72,0,0,0-.09-0.9c0-.06-0.06-0.11-0.09-0.17a3.64,3.64,0,0,0-1.84-5c1.61-7.93,7.88-13.87,15.29-13.87h0.16c7.27,0,13.42,5.7,15.19,13.38h-0.08ZM493,435.78a4.16,4.16,0,0,0-.53.08,3.11,3.11,0,0,0,.53-0.28C493,435.65,493,435.72,493,435.78Zm1.79,12.67-0.06,0Zm-1.42-1,0.13,0.13Z" transform="translate(-64.52 -377.15)"/><path d="M96.06,454.72a19.59,19.59,0,0,1-13-4.82A15.38,15.38,0,0,1,78,440.7a4.13,4.13,0,0,0-3.74-6.93,4.15,4.15,0,1,0-2.51.86,3.86,3.86,0,0,0,.71-0.07A4.18,4.18,0,0,0,71,436.49a3.62,3.62,0,0,0-.65,1.94,22.43,22.43,0,0,0,7.47,16.69,26.9,26.9,0,0,0,18.18,7h0A3.71,3.71,0,0,0,96.06,454.72Z" transform="translate(-64.52 -377.15)"/><path d="M64.6,413.17a4.16,4.16,0,1,0,5.77-3.85,4.15,4.15,0,0,0-1.44-7.94,4.16,4.16,0,0,0,1-8.19,4.2,4.2,0,1,0-1.81-.06,4.15,4.15,0,0,0,.56,8.23,4.16,4.16,0,0,0-1.57,8A4.18,4.18,0,0,0,64.6,413.17Z" transform="translate(-64.52 -377.15)"/><circle cx="5.11" cy="44.8" r="4.17"/><path d="M218.09,423.77a4,4,0,0,0,.71-0.37l0.11-.06a4,4,0,0,0,1.16-1l0.09-.12a4.23,4.23,0,0,0-3.33-6.92,4.5,4.5,0,0,0-1.26.19,4.31,4.31,0,0,0,1.26,8.43A4.15,4.15,0,0,0,218.09,423.77Z" transform="translate(-64.52 -377.15)"/><path d="M371.51,437.84a1.56,1.56,0,0,0,0-.2,3.31,3.31,0,0,0,0-1.09,3.28,3.28,0,0,0,0-1.08,3.28,3.28,0,0,0,0-1.08,3.45,3.45,0,0,0,0-1.05,3.91,3.91,0,0,0,.11-0.9,4,4,0,0,0-.11-0.91,2.88,2.88,0,0,0,0-.38,3.28,3.28,0,0,0,0-1.08,3.25,3.25,0,0,0,0-1.08,3.28,3.28,0,0,0,0-1.08,3.31,3.31,0,0,0,0-1.09,3.28,3.28,0,0,0,0-1.08,3.25,3.25,0,0,0,0-1.08,3.33,3.33,0,0,0,0-1.09,3.23,3.23,0,0,0,0-1.08,3.31,3.31,0,0,0,0-1.09,3.28,3.28,0,0,0,0-1.08,3.16,3.16,0,0,0,0-.64,3.37,3.37,0,0,0,.11-0.77,26.34,26.34,0,0,0-7.3-16.89,22.06,22.06,0,0,0-15.79-6.86l-1.23,0a3.59,3.59,0,0,0-2.15,1,3.93,3.93,0,1,0,3.55,6.24c6.59,0.09,12.29,4.8,14.61,11.49a4,4,0,0,0-.6.88A21.66,21.66,0,0,0,348.2,409h-0.12v0h0c-11.11,0-20.42,8.77-22.48,20.31a3.79,3.79,0,0,0-.35,3c0,0.54-.09,1.08-0.09,1.63a3.57,3.57,0,0,0,1,2.56l0.07,0a4,4,0,0,0-.6,2.1,4.05,4.05,0,0,0,3.76,4,4,4,0,0,0-1.41,3,4,4,0,0,0,5.51,3.77,4,4,0,0,0-.27,1.42,4,4,0,0,0,7,2.78,4,4,0,0,0,7.79,1,4,4,0,0,0,8-.43,4,4,0,0,0,7.45-2.67,3.94,3.94,0,0,0,.91.78,3.71,3.71,0,0,0,.14,1,3.6,3.6,0,0,0,3.46,2.57,3.69,3.69,0,0,0,1.06-.16,3.64,3.64,0,0,0,2.52-4,3.31,3.31,0,0,0,0-1.09,3.28,3.28,0,0,0,0-1.08,3.28,3.28,0,0,0,0-1.08,3.31,3.31,0,0,0,0-1.09,3.2,3.2,0,0,0,0-1.07,3.31,3.31,0,0,0,0-1.09,3.31,3.31,0,0,0,0-1.09,3.25,3.25,0,0,0,0-1.08,3.25,3.25,0,0,0,0-1.08,3,3,0,0,0,0-.48A3.9,3.9,0,0,0,371.51,437.84Zm-8.41-9.34a18.86,18.86,0,0,1,.49,2,4,4,0,0,0,.76,6.49,4.7,4.7,0,0,0,0,.6s0,0.09,0,.14a4.29,4.29,0,0,0-.25.56,4,4,0,0,0-1.17,5.31A4.06,4.06,0,0,0,361.2,447a4,4,0,0,0,.43,1.78,4,4,0,0,0-6.24,3.11,4,4,0,0,0-7.23.68,4,4,0,0,0-6.91-2.06,4,4,0,0,0-4-3.61,3.91,3.91,0,0,0-1.46.28,4,4,0,0,0-3.49-5.44,4,4,0,0,0-.27-6.32,3.62,3.62,0,0,0,.29-1.39c0-.12,0-0.23,0-0.35a4,4,0,0,0,.8-2.4,4,4,0,0,0-.31-1.55c1.74-7.73,7.9-13.47,15.2-13.47h0.17c6,0,11.29,3.93,13.92,9.65h0A4,4,0,0,0,363.1,428.5Z" transform="translate(-64.52 -377.15)"/></svg>